<svg width="479" height="217" viewBox="0 0 479 217" fill="none" xmlns="http://www.w3.org/2000/svg">
<g filter="url(#filter0_d)">
<circle cx="426" cy="164" r="33" fill="#A83A01"/>
</g>
<g filter="url(#filter1_d)">
<ellipse cx="169.5" cy="119" rx="26.5" ry="33" fill="#3F833F"/>
</g>
<g filter="url(#filter2_d)">
<ellipse cx="82" cy="119" rx="27" ry="33" fill="#3F833F"/>
</g>
<path d="M11.5532 31.3086V60.6055C11.5532 61.9238 11.0894 63.0469 10.1616 63.9746C9.23389 64.9023 8.11084 65.3662 6.79248 65.3662C5.47412 65.3662 4.35107 64.9023 3.42334 63.9746C2.49561 63.0469 2.03174 61.9238 2.03174 60.6055V26.5479C2.03174 25.2295 2.49561 24.1064 3.42334 23.1787C4.35107 22.251 5.47412 21.7871 6.79248 21.7871H32.4272C33.7456 21.7871 34.8687 22.251 35.7964 23.1787C36.7241 24.1064 37.188 25.2295 37.188 26.5479V60.6055C37.188 61.9238 36.7241 63.0469 35.7964 63.9746C34.8687 64.9023 33.7456 65.3662 32.4272 65.3662C31.1089 65.3662 29.9858 64.9023 29.0581 63.9746C28.1304 63.0469 27.6665 61.9238 27.6665 60.6055V31.3086H11.5532ZM84.1436 52.5854L70.9966 28.1592C70.4106 27.0361 70.3008 25.8765 70.667 24.6802C71.0576 23.4595 71.8145 22.5562 72.9375 21.9702C74.0605 21.3843 75.2202 21.2866 76.4165 21.6772C77.6372 22.0679 78.5405 22.8247 79.1265 23.9478L89.1606 43.5767L99.2314 23.9478C99.8174 22.8247 100.708 22.0679 101.905 21.6772C103.125 21.2866 104.297 21.3843 105.42 21.9702C106.543 22.5562 107.288 23.4595 107.654 24.6802C108.045 25.8765 107.947 27.0361 107.361 28.1592L91.541 57.4927C90.0762 59.9829 88.5259 62.1069 86.8901 63.8647C85.2788 65.5981 82.9717 66.4648 79.9688 66.4648C76.7461 66.4648 74.4146 65.8057 72.9741 64.4873C71.5337 63.1689 70.8135 61.7529 70.8135 60.2393C70.8135 58.7256 71.2285 57.4927 72.0586 56.5405C72.8887 55.5884 73.9385 55.1123 75.208 55.1123C76.2334 55.1123 77.0024 55.3687 77.5151 55.8813C78.0278 56.394 78.8457 56.6626 79.9688 56.687C81.0918 56.7114 82.1416 56.0522 83.1182 54.7095L84.1436 52.5854ZM167.83 42.3682C167.952 42.4414 168.074 42.5269 168.196 42.6245C170.955 44.6753 172.334 47.7271 172.334 51.7798C172.188 55.7593 170.662 58.9819 167.757 61.4478C164.681 64.0601 160.958 65.3662 156.587 65.3662C150.02 65.3662 145.113 62.8271 141.866 57.749C141.182 56.8213 140.84 55.6982 140.84 54.3799C140.84 53.0615 141.304 51.9385 142.232 51.0107C143.16 50.083 144.283 49.6191 145.601 49.6191C146.919 49.6191 148.042 50.2051 148.97 51.377C150.606 54.3555 153.145 55.8447 156.587 55.8447C158.321 55.8447 159.786 55.4785 160.982 54.7461C162.203 53.9893 162.813 52.9517 162.813 51.6333C162.813 50.3149 162.337 49.2163 161.385 48.3374C160.018 47.4829 158.052 47.0557 155.489 47.0557C154.17 47.0557 153.108 46.6528 152.303 45.8472C151.497 45.0415 151.094 43.9795 151.094 42.6611C151.094 41.3428 151.497 40.2808 152.303 39.4751C153.108 38.6694 154.17 38.2666 155.489 38.2666C157.857 38.2422 159.639 37.8638 160.835 37.1313C161.666 36.3989 162.081 35.4956 162.081 34.4214C162.081 33.3472 161.592 32.5049 160.616 31.8945C159.664 31.2598 158.199 30.9424 156.221 30.9424C154.244 30.9424 152.803 31.5527 151.9 32.7734C150.997 33.9697 150.264 34.8486 149.703 35.4102C148.775 36.3379 147.652 36.8018 146.333 36.8018C145.015 36.8018 143.953 36.3989 143.147 35.5933C142.342 34.7876 141.939 33.7256 141.939 32.4072C141.939 31.0889 142.281 29.8438 142.964 28.6719C146.456 23.8379 151.119 21.4209 156.954 21.4209C161.006 21.5674 164.424 22.8613 167.208 25.3027C170.015 27.5488 171.48 30.5518 171.602 34.3115C171.602 37.5342 170.345 40.2197 167.83 42.3682ZM221.744 55.4785C223.453 55.4785 224.917 54.8682 226.138 53.6475C227.359 52.4268 227.969 50.9619 227.969 49.2529C227.969 47.5439 227.359 46.0791 226.138 44.8584C224.917 43.6377 223.453 43.0273 221.744 43.0273H215.152V55.4785H221.744ZM221.744 33.5059C226.114 33.5059 229.825 35.0439 232.876 38.1201C235.953 41.1719 237.491 44.8828 237.491 49.2529C237.491 53.623 235.953 57.3462 232.876 60.4224C229.825 63.4741 226.114 65 221.744 65H210.391C209.073 65 207.95 64.5361 207.022 63.6084C206.094 62.6807 205.63 61.5576 205.63 60.2393V26.1816C205.63 24.8633 206.094 23.7402 207.022 22.8125C207.95 21.8848 209.073 21.4209 210.391 21.4209C211.709 21.4209 212.833 21.8848 213.76 22.8125C214.688 23.7402 215.152 24.8633 215.152 26.1816V33.5059H221.744ZM248.111 60.6055C248.111 61.9238 247.647 63.0469 246.719 63.9746C245.792 64.9023 244.668 65.3662 243.35 65.3662C242.032 65.3662 240.909 64.9023 239.981 63.9746C239.053 63.0469 238.589 61.9238 238.589 60.6055V26.1816C238.589 24.8633 239.053 23.7402 239.981 22.8125C240.909 21.8848 242.032 21.4209 243.35 21.4209C244.668 21.4209 245.792 21.8848 246.719 22.8125C247.647 23.7402 248.111 24.8633 248.111 26.1816V60.6055ZM291.294 31.3086V43.7598H297.886C299.595 43.7598 301.06 43.1494 302.281 41.9287C303.501 40.708 304.112 39.2432 304.112 37.5342C304.112 35.8252 303.501 34.3604 302.281 33.1396C301.06 31.9189 299.595 31.3086 297.886 31.3086H291.294ZM291.294 53.2812V60.6055C291.294 61.9238 290.831 63.0469 289.903 63.9746C288.975 64.9023 287.852 65.3662 286.534 65.3662C285.215 65.3662 284.092 64.9023 283.165 63.9746C282.237 63.0469 281.773 61.9238 281.773 60.6055V26.5479C281.773 25.2295 282.237 24.1064 283.165 23.1787C284.092 22.251 285.215 21.7871 286.534 21.7871H297.886C302.256 21.7871 305.967 23.3252 309.019 26.4014C312.095 29.4531 313.633 33.1641 313.633 37.5342C313.633 41.9043 312.095 45.6274 309.019 48.7036C305.967 51.7554 302.256 53.2812 297.886 53.2812H291.294ZM351.69 21.7871H371.465C372.784 21.7871 373.907 22.251 374.834 23.1787C375.762 24.1064 376.226 25.2295 376.226 26.5479C376.226 27.8662 375.762 28.9893 374.834 29.917C373.907 30.8447 372.784 31.3086 371.465 31.3086H356.451V38.6328H367.803C369.122 38.6328 370.245 39.0967 371.172 40.0244C372.1 40.9521 372.564 42.0752 372.564 43.3936C372.564 44.7119 372.1 45.835 371.172 46.7627C370.245 47.6904 369.122 48.1543 367.803 48.1543H356.451V55.4785H371.465C372.784 55.4785 373.907 55.9424 374.834 56.8701C375.762 57.7979 376.226 58.9209 376.226 60.2393C376.226 61.5576 375.762 62.6807 374.834 63.6084C373.907 64.5361 372.784 65 371.465 65H351.69C350.372 65 349.249 64.5361 348.321 63.6084C347.393 62.6807 346.929 61.5576 346.929 60.2393V26.5479C346.929 25.2295 347.393 24.1064 348.321 23.1787C349.249 22.251 350.372 21.7871 351.69 21.7871ZM419.043 48.2275V60.6055C419.043 61.9238 418.58 63.0469 417.652 63.9746C416.724 64.9023 415.601 65.3662 414.283 65.3662C412.964 65.3662 411.841 64.9023 410.914 63.9746C409.986 63.0469 409.522 61.9238 409.522 60.6055V26.1816C409.522 24.8633 409.986 23.7402 410.914 22.8125C411.841 21.8848 412.964 21.4209 414.283 21.4209C415.601 21.4209 416.724 21.8848 417.652 22.8125C418.58 23.7402 419.043 24.8633 419.043 26.1816V37.8271L434.095 22.8125C435.022 21.8848 436.133 21.4209 437.427 21.4209C438.746 21.4209 439.881 21.8848 440.833 22.8125C441.761 23.7402 442.225 24.8633 442.225 26.1816C442.225 27.5 441.749 28.623 440.796 29.5508L427.283 43.0273L441.529 57.2363C442.481 58.1641 442.957 59.2871 442.957 60.6055C442.957 61.9238 442.493 63.0469 441.565 63.9746C440.613 64.9023 439.478 65.3662 438.16 65.3662C436.866 65.3662 435.755 64.9023 434.827 63.9746L419.043 48.2275Z" fill="#E5E5E5"/>
<path d="M292.489 172.585L279.342 148.159C278.756 147.036 278.646 145.876 279.013 144.68C279.403 143.459 280.16 142.556 281.283 141.97C282.406 141.384 283.566 141.287 284.762 141.677C285.983 142.068 286.886 142.825 287.472 143.948L297.506 163.577L307.577 143.948C308.163 142.825 309.054 142.068 310.25 141.677C311.471 141.287 312.643 141.384 313.766 141.97C314.889 142.556 315.634 143.459 316 144.68C316.391 145.876 316.293 147.036 315.707 148.159L299.887 177.493C298.422 179.983 296.872 182.107 295.236 183.865C293.625 185.598 291.317 186.465 288.314 186.465C285.092 186.465 282.76 185.806 281.32 184.487C279.879 183.169 279.159 181.753 279.159 180.239C279.159 178.726 279.574 177.493 280.404 176.541C281.234 175.588 282.284 175.112 283.554 175.112C284.579 175.112 285.348 175.369 285.861 175.881C286.374 176.394 287.191 176.663 288.314 176.687C289.438 176.711 290.487 176.052 291.464 174.709L292.489 172.585Z" fill="#E5E5E5"/>
<path d="M29.4897 162.625C29.6118 162.698 29.7339 162.783 29.856 162.881C32.6147 164.932 33.9941 167.983 33.9941 172.036C33.8477 176.016 32.3218 179.238 29.4165 181.704C26.3403 184.316 22.6172 185.623 18.2471 185.623C11.6797 185.623 6.77246 183.083 3.52539 178.005C2.8418 177.078 2.5 175.955 2.5 174.636C2.5 173.318 2.96387 172.195 3.8916 171.267C4.81934 170.339 5.94238 169.875 7.26074 169.875C8.5791 169.875 9.70215 170.461 10.6299 171.633C12.2656 174.612 14.8047 176.101 18.2471 176.101C19.9805 176.101 21.4453 175.735 22.6416 175.002C23.8623 174.246 24.4727 173.208 24.4727 171.89C24.4727 170.571 23.9966 169.473 23.0444 168.594C21.6772 167.739 19.7119 167.312 17.1484 167.312C15.8301 167.312 14.7681 166.909 13.9624 166.104C13.1567 165.298 12.7539 164.236 12.7539 162.917C12.7539 161.599 13.1567 160.537 13.9624 159.731C14.7681 158.926 15.8301 158.523 17.1484 158.523C19.5166 158.499 21.2988 158.12 22.4951 157.388C23.3252 156.655 23.7402 155.752 23.7402 154.678C23.7402 153.604 23.252 152.761 22.2754 152.151C21.3232 151.516 19.8584 151.199 17.8809 151.199C15.9033 151.199 14.4629 151.809 13.5596 153.03C12.6562 154.226 11.9238 155.105 11.3623 155.667C10.4346 156.594 9.31152 157.058 7.99316 157.058C6.6748 157.058 5.61279 156.655 4.80713 155.85C4.00146 155.044 3.59863 153.982 3.59863 152.664C3.59863 151.345 3.94043 150.1 4.62402 148.928C8.11523 144.094 12.7783 141.677 18.6133 141.677C22.666 141.824 26.084 143.118 28.8672 145.559C31.6748 147.805 33.1396 150.808 33.2617 154.568C33.2617 157.791 32.0044 160.476 29.4897 162.625Z" fill="#E5E5E5"/>
<path d="M225.661 149.917V162.368H232.253C233.962 162.368 235.427 161.758 236.647 160.537C237.868 159.316 238.479 157.852 238.479 156.143C238.479 154.434 237.868 152.969 236.647 151.748C235.427 150.527 233.962 149.917 232.253 149.917H225.661ZM225.661 171.89V179.214C225.661 180.532 225.197 181.655 224.27 182.583C223.342 183.511 222.219 183.975 220.9 183.975C219.582 183.975 218.459 183.511 217.531 182.583C216.604 181.655 216.14 180.532 216.14 179.214V145.156C216.14 143.838 216.604 142.715 217.531 141.787C218.459 140.859 219.582 140.396 220.9 140.396H232.253C236.623 140.396 240.334 141.934 243.386 145.01C246.462 148.062 248 151.772 248 156.143C248 160.513 246.462 164.236 243.386 167.312C240.334 170.364 236.623 171.89 232.253 171.89H225.661Z" fill="#E5E5E5"/>
<path d="M351.69 141.787H371.465C372.784 141.787 373.907 142.251 374.834 143.179C375.762 144.106 376.226 145.229 376.226 146.548C376.226 147.866 375.762 148.989 374.834 149.917C373.907 150.845 372.784 151.309 371.465 151.309H356.451V158.633H367.803C369.122 158.633 370.245 159.097 371.172 160.024C372.1 160.952 372.564 162.075 372.564 163.394C372.564 164.712 372.1 165.835 371.172 166.763C370.245 167.69 369.122 168.154 367.803 168.154H356.451V175.479H371.465C372.784 175.479 373.907 175.942 374.834 176.87C375.762 177.798 376.226 178.921 376.226 180.239C376.226 181.558 375.762 182.681 374.834 183.608C373.907 184.536 372.784 185 371.465 185H351.69C350.372 185 349.249 184.536 348.321 183.608C347.393 182.681 346.929 181.558 346.929 180.239V146.548C346.929 145.229 347.393 144.106 348.321 143.179C349.249 142.251 350.372 141.787 351.69 141.787Z" fill="#E5E5E5"/>
<path d="M419.043 168.228V180.605C419.043 181.924 418.58 183.047 417.652 183.975C416.724 184.902 415.601 185.366 414.283 185.366C412.964 185.366 411.841 184.902 410.914 183.975C409.986 183.047 409.522 181.924 409.522 180.605V146.182C409.522 144.863 409.986 143.74 410.914 142.812C411.841 141.885 412.964 141.421 414.283 141.421C415.601 141.421 416.724 141.885 417.652 142.812C418.58 143.74 419.043 144.863 419.043 146.182V157.827L434.095 142.812C435.022 141.885 436.133 141.421 437.427 141.421C438.746 141.421 439.881 141.885 440.833 142.812C441.761 143.74 442.225 144.863 442.225 146.182C442.225 147.5 441.749 148.623 440.796 149.551L427.283 163.027L441.529 177.236C442.481 178.164 442.957 179.287 442.957 180.605C442.957 181.924 442.493 183.047 441.565 183.975C440.613 184.902 439.478 185.366 438.16 185.366C436.866 185.366 435.755 184.902 434.827 183.975L419.043 168.228Z" fill="#E5E5E5"/>
<path d="M79.1379 131.05C80.4253 131.05 81.5287 130.439 82.4483 129.217C83.3678 127.994 83.8276 127.578 83.8276 125.867C83.8276 124.156 83.3678 123.222 82.4483 122C81.5287 120.778 80.4253 120.167 79.1379 120.167L74.1724 119.633V132.1L79.1379 131.05ZM79.1379 110.633C82.4299 110.633 85.2253 112.173 87.5241 115.253C89.8414 118.309 91 121.491 91 125.867C91 130.242 89.8414 132.92 87.5241 136C85.2253 139.056 82.4299 140.583 79.1379 140.583L70.5862 141.633C69.5931 141.633 68.7471 141.169 68.0483 140.24C67.3494 139.311 67 138.187 67 136.867V102.767C67 101.447 67.3494 100.322 68.0483 99.3933C68.7471 98.4644 69.5931 98 70.5862 98C71.5793 98 72.4253 98.4644 73.1241 99.3933C73.823 100.322 74.1724 101.447 74.1724 102.767V110.1L79.1379 110.633ZM99 134.5C99 135.82 98.6506 136.944 97.9517 137.873C97.2529 138.802 96.4069 139.267 95.4138 139.267C94.4207 139.267 93.5747 138.802 92.8759 137.873C92.177 136.944 91.8276 135.82 91.8276 134.5V107C91.8276 105.68 92.177 104.556 92.8759 103.627C93.5747 102.698 94.4207 102.233 95.4138 102.233C96.4069 102.233 97.2529 102.698 97.9517 103.627C98.6506 104.556 99 105.68 99 107V134.5Z" fill="#E5E5E5"/>
<path d="M162.042 109L162.042 133C162.042 134.331 161.699 135.465 161.012 136.402C160.326 137.338 159.496 137.807 158.521 137.807C157.546 137.807 156.715 137.338 156.029 136.402C155.343 135.465 155 134.331 155 133V106.693C155 105.362 155.343 104.228 156.029 103.292C156.715 102.355 157.546 101.887 158.521 101.887L177.479 98C178.454 98 179.285 98.4683 179.971 99.405C180.657 100.342 181 101.476 181 102.807V137.193C181 138.524 180.657 139.658 179.971 140.595C179.285 141.532 178.454 142 177.479 142C176.504 142 175.674 141.532 174.988 140.595C174.301 139.658 173.958 138.524 173.958 137.193V107.613L162.042 109Z" fill="#E5E5E5"/>
<defs>
<filter id="filter0_d" x="373" y="111" width="106" height="106" filterUnits="userSpaceOnUse" color-interpolation-filters="sRGB">
<feFlood flood-opacity="0" result="BackgroundImageFix"/>
<feColorMatrix in="SourceAlpha" type="matrix" values="0 0 0 0 0 0 0 0 0 0 0 0 0 0 0 0 0 0 127 0"/>
<feOffset/>
<feGaussianBlur stdDeviation="10"/>
<feColorMatrix type="matrix" values="0 0 0 0 1 0 0 0 0 0.847059 0 0 0 0 0.596078 0 0 0 1 0"/>
<feBlend mode="normal" in2="BackgroundImageFix" result="effect1_dropShadow"/>
<feBlend mode="normal" in="SourceGraphic" in2="effect1_dropShadow" result="shape"/>
</filter>
<filter id="filter1_d" x="123" y="66" width="93" height="106" filterUnits="userSpaceOnUse" color-interpolation-filters="sRGB">
<feFlood flood-opacity="0" result="BackgroundImageFix"/>
<feColorMatrix in="SourceAlpha" type="matrix" values="0 0 0 0 0 0 0 0 0 0 0 0 0 0 0 0 0 0 127 0"/>
<feOffset/>
<feGaussianBlur stdDeviation="10"/>
<feColorMatrix type="matrix" values="0 0 0 0 1 0 0 0 0 0.847059 0 0 0 0 0.596078 0 0 0 1 0"/>
<feBlend mode="normal" in2="BackgroundImageFix" result="effect1_dropShadow"/>
<feBlend mode="normal" in="SourceGraphic" in2="effect1_dropShadow" result="shape"/>
</filter>
<filter id="filter2_d" x="35" y="66" width="94" height="106" filterUnits="userSpaceOnUse" color-interpolation-filters="sRGB">
<feFlood flood-opacity="0" result="BackgroundImageFix"/>
<feColorMatrix in="SourceAlpha" type="matrix" values="0 0 0 0 0 0 0 0 0 0 0 0 0 0 0 0 0 0 127 0"/>
<feOffset/>
<feGaussianBlur stdDeviation="10"/>
<feColorMatrix type="matrix" values="0 0 0 0 1 0 0 0 0 0.847059 0 0 0 0 0.596078 0 0 0 1 0"/>
<feBlend mode="normal" in2="BackgroundImageFix" result="effect1_dropShadow"/>
<feBlend mode="normal" in="SourceGraphic" in2="effect1_dropShadow" result="shape"/>
</filter>
</defs>
</svg>
